# xmcd
#
# Track frame offsets:
#   150
#   28137
#   53674
#   77301
#   93313
#   108385
#   139239
#   159084
#   178588
#   195408
#   209728
#   233802
#   249962
#   264244
#   291376
#
# Disc length: 4210 seconds
#
# Revision: 0
# Processed by: cddbd v1.4PL0 Copyright (c) Steve Scherf et al.
# Submitted via: uFREEDB 1.6.0
#
DISCID=c410700f
DTITLE=Various Artist - The best in blues
DYEAR=1900
DGENRE=Blues
TTITLE0=gary moore/still got the blues
TTITLE1=john lee hooker and carlos santana/the healer
TTITLE2=jeff healey band/hoochie coochie man
TTITLE3=bonnie raitt/the road's my middle name
TTITLE4=john mayall/let's work together
TTITLE5=larry mccray/country girl
TTITLE6=john lee hooker and Charles Musselwhite/that's allr
TTITLE7=blues band/bad boy
TTITLE8=etta james/the blues don't care
TTITLE9=jan akkerman/you can't keep a bad man up
TTITLE10=tina turner/undercover agent for the blues
TTITLE11=rocky hill/mississippi delta blues
TTITLE12=j.j. cale/end of the line
TTITLE13=cowboy junkies/walking after midnight
TTITLE14=bruce willis/blues for mr. D.
EXTD=
EXTT0=
EXTT1=
EXTT2=
EXTT3=
EXTT4=
EXTT5=
EXTT6=
EXTT7=
EXTT8=
EXTT9=
EXTT10=
EXTT11=
EXTT12=
EXTT13=
EXTT14=
PLAYORDER=
